<svg xmlns="http://www.w3.org/2000/svg" width="26.58" height="18.123"><path id="icons8-visa" d="M5.927 9A3.931 3.931 0 002 12.927V23.2a3.931 3.931 0 003.927 3.927h18.726A3.931 3.931 0 0028.58 23.2V12.927A3.931 3.931 0 0024.653 9zM17.8 14.739a4.99 4.99 0 011.57.31l-.271 1.4a2.584 2.584 0 00-1.162-.408c-.834 0-1.126.273-1.126.639 0 .716 2.326.832 2.327 2.44 0 1.337-1.667 2.268-2.868 2.268a3.834 3.834 0 01-1.823-.367l.29-1.339a3.483 3.483 0 001.609.368c.968 0 1.1-.407 1.1-.58 0-1.026-2.326-.754-2.326-2.75.005-1.109.916-1.981 2.68-1.981zm-5.064.127h1.7l-1.015 6.319h-1.68zm9.11 0h1.764l1.3 6.319h-1.528l-.181-.9H21.1l-.345.9h-1.662zm-11.567 0h1.795l-2.554 6.32H7.673l-1.346-5.117a5.655 5.655 0 012.291 2.677c.037.238.125.621.125.621zm-5.813.013h2.593a1.04 1.04 0 01.918.622l.564 2.867c-.769-2.478-4.076-3.488-4.076-3.488zm18.014 1.809l-.913 2.388h1.391z" transform="translate(-2 -9)" fill="#1068f8"/></svg>