<svg xmlns="http://www.w3.org/2000/svg" width="20.398" height="20.398"><path id="icons8-facebook" d="M26.4 9.116v14.166a3.122 3.122 0 01-3.118 3.118h-3.117v-7.934h2.051a.57.57 0 00.567-.5l.21-1.7a.549.549 0 00-.136-.442.556.556 0 00-.425-.193h-2.267v-1.982a1.137 1.137 0 011.135-1.133h1.133a.568.568 0 00.567-.567v-1.915a.57.57 0 00-.516-.561 21.221 21.221 0 00-1.847-.074c-2.493 0-3.87 1.485-3.87 4.176v2.057H14.5a.568.568 0 00-.567.567v1.7a.568.568 0 00.567.567h2.266V26.4h-7.65A3.122 3.122 0 016 23.282V9.116A3.122 3.122 0 019.116 6h14.166A3.122 3.122 0 0126.4 9.116z" transform="translate(-6 -6)" fill="#1068f8"/></svg>