<svg xmlns="http://www.w3.org/2000/svg" width="24.931" height="18.132"><path id="icons8-youtube" d="M14.385 8.5a49.39 49.39 0 00-8.852.655h-.012a3.843 3.843 0 00-3.077 2.965v.007A31.2 31.2 0 002 17.566a26.31 26.31 0 00.5 5.455 3.877 3.877 0 003.074 2.953l.021.006a50.574 50.574 0 008.841.653 50.608 50.608 0 008.843-.653l.021-.006a3.843 3.843 0 003.077-2.965v-.012a36.217 36.217 0 00.55-5.465v-.019a26.232 26.232 0 00-.553-5.5A3.876 3.876 0 0023.3 9.051l-.068-.012a68.9 68.9 0 00-8.847-.539zm-2.1 4.817a1.225 1.225 0 01.631.16l4.875 2.755a1.2 1.2 0 010 2.1l-4.875 2.755a1.225 1.225 0 01-1.832-1.051v-5.508a1.218 1.218 0 011.204-1.211z" transform="translate(-2 -8.5)" fill="#1068f8"/></svg>