<svg id="icons8-linkedin" xmlns="http://www.w3.org/2000/svg" width="20.398" height="20.398"><path id="icons8-linkedin-2" data-name="icons8-linkedin" d="M23.282 6H9.116A3.12 3.12 0 006 9.116v14.166A3.12 3.12 0 009.116 26.4h14.166a3.12 3.12 0 003.118-3.118V9.116A3.12 3.12 0 0023.282 6zM12.8 21.865a.566.566 0 01-.567.567h-1.7a.566.566 0 01-.567-.567V14.5a.566.566 0 01.567-.567h1.7a.566.566 0 01.567.567zM11.383 12.8a1.417 1.417 0 111.417-1.417 1.416 1.416 0 01-1.417 1.417zm11.049 9.066a.566.566 0 01-.567.567h-1.7a.566.566 0 01-.567-.567v-4.25a1.417 1.417 0 00-2.833 0v4.25a.566.566 0 01-.567.567H14.5a.566.566 0 01-.567-.567V14.5a.566.566 0 01.567-.567h1.7a.566.566 0 01.567.567v.307a3.394 3.394 0 015.666 2.527z" transform="translate(-6 -6)" fill="#1068f8"/></svg>