<svg xmlns="http://www.w3.org/2000/svg" width="226.565" height="20.242"><g id="Groupe_2105" data-name="Groupe 2105" transform="translate(-333.132 -364.944)"><path id="Tracé_177" data-name="Tracé 177" d="M511.881 376.5c7.419 2.174 14.839 4.339 22.252 6.557.328.1.585.7 1.054 1.293-.958 1.266-1.865.768-2.706.544-4.088-1.083-8.147-2.446-12.258-3.25a148.475 148.475 0 00-16.734-2.537c-15.774-1.241-31.553-2.587-47.342-3.126q-26.972-.924-53.964-.433c-12.985.247-25.966 1.529-38.939 2.566-5.912.473-11.8 1.554-17.706 2.195-3.627.394-7.269.5-10.906.673-.463.023-.933-.362-1.5-.6.233-1.875 1.129-1.753 1.9-1.882 8.357-1.377 16.709-2.822 25.073-4.09 4.03-.612 8.08-.976 12.127-1.3a823.2 823.2 0 0185.761-2.559 6.5 6.5 0 003.083-.485c-2.248-.292-4.491-.632-6.74-.865a345.71 345.71 0 00-52.057-1.866c-13.082.623-26.147 2.093-39.218 3.216-5.079.437-10.153 1.024-15.233 1.373-.757.052-1.544-.836-2.878-1.615 1.035-.9 1.426-1.522 1.838-1.551 11.718-.8 23.437-1.628 35.159-2.258 12.155-.655 24.312-1.4 36.471-1.542a269.6 269.6 0 0127.437 1.135c10.267.929 20.5 2.6 30.749 3.9 5.8.738 11.594 1.653 17.4 2.023 15.175.958 30.3 2.541 45.288 6.272 5.327 1.325 10.672 2.5 16 3.787 1.318.317 2.617.8 4.4 1.35-1.347 1.6-2.47 1.126-3.473.91-9.148-1.943-18.28-4.063-27.438-5.9-5.638-1.13-11.316-1.86-16.976-2.768zm-82.15-3.841l70.529 3.825c-23.444-4.357-47.029-2.81-70.528-3.821zm35.328-1.78v.165h2.087v-.165z" fill="#ffaf17"/></g></svg>