<svg id="Groupe_2051" data-name="Groupe 2051" xmlns="http://www.w3.org/2000/svg" width="73.999" height="116.053"><path id="Tracé_162" data-name="Tracé 162" d="M36.714 0A36.714 36.714 0 110 36.714 36.714 36.714 0 0136.714 0z" transform="translate(.272 29.827)" fill="#0249bc"/><path id="Tracé_148" data-name="Tracé 148" d="M264.656 312.682l-2.5-2.5 2.844-2.849.6-10.564a1.752 1.752 0 01.162-.645l11.175-24.046c.21-.405 1.81-3.316 4.592-3.488 1.791-.1 3.43.9 4.886 3 2.621 3.78 1.649 10.06.516 14.33l26.031-26.03a6.717 6.717 0 014.656-1.989 6.511 6.511 0 014.669 1.874 6.387 6.387 0 011.873 4.668 6.715 6.715 0 01-1.988 4.656l-2.5-2.5a3.193 3.193 0 00.952-2.211 2.88 2.88 0 00-.838-2.105 2.957 2.957 0 00-2.1-.837 3.192 3.192 0 00-2.211.951l-28.172 28.171a1.761 1.761 0 01-.946.492l-2.189.383a1.771 1.771 0 01-1.953-2.393c1.208-3.073 3.8-11.838 1.3-15.439-.779-1.124-1.418-1.516-1.756-1.482-.58.036-1.363.994-1.638 1.521l-11 23.663-.618 10.9a1.773 1.773 0 01-.515 1.152z" transform="translate(-250.159 -233.813)" fill="#f7f9fd"/><path id="Rectangle_569" data-name="Rectangle 569" transform="rotate(-44.999 91.179 -26.82)" fill="#f7f9fd" d="M0 0h33.711v3.541H0z"/><g id="Groupe_2045" data-name="Groupe 2045" transform="translate(45.944 46.872)"><path id="Tracé_149" data-name="Tracé 149" d="M303 295.609l-2.5-2.5 7.484-7.484a6.515 6.515 0 119.21 9.21l-2.5-2.5a2.975 2.975 0 10-4.2-4.2z" transform="translate(-300.499 -283.635)" fill="#f7f9fd"/></g><g id="Groupe_2046" data-name="Groupe 2046" transform="translate(51.783 55.564)"><path id="Rectangle_570" data-name="Rectangle 570" transform="rotate(-45 10.08 4.176)" fill="#f7f9fd" d="M0 0h11.81v3.541H0z"/></g><g id="Groupe_2047" data-name="Groupe 2047" transform="translate(57.115 56.598)"><path id="Tracé_150" data-name="Tracé 150" d="M322.326 305.816l-2.5-2.5a2.975 2.975 0 10-4.2-4.2l-2.5-2.5a6.514 6.514 0 119.21 9.21z" transform="translate(-313.116 -294.62)" fill="#f7f9fd"/></g><g id="Groupe_2048" data-name="Groupe 2048" transform="translate(56.987 65.29)"><path id="Rectangle_571" data-name="Rectangle 571" transform="rotate(-45 8.25 3.417)" fill="#f7f9fd" d="M0 0h9.665v3.541H0z"/></g><g id="Groupe_2049" data-name="Groupe 2049" transform="translate(60.93 66.193)"><path id="Tracé_151" data-name="Tracé 151" d="M326.637 316.654l-2.5-2.5a3.2 3.2 0 00.951-2.212 2.876 2.876 0 00-.837-2.1 3.059 3.059 0 00-4.316.114l-2.5-2.5a6.6 6.6 0 019.325-.113 6.381 6.381 0 011.864 4.657 6.718 6.718 0 01-1.987 4.654z" transform="translate(-317.426 -305.458)" fill="#f7f9fd"/></g><g id="Groupe_2050" data-name="Groupe 2050" transform="translate(35.832 74.886)"><path id="Tracé_152" data-name="Tracé 152" d="M291.583 344l-2.5-2.5 3.082-3.082a1.777 1.777 0 01.717-.436l7.776-2.468 20.23-20.229 2.5 2.5-20.534 20.534a1.755 1.755 0 01-.716.436l-7.776 2.468z" transform="translate(-289.078 -315.276)" fill="#f7f9fd"/></g><path id="Tracé_153" data-name="Tracé 153" d="M283.78 356.086l-2.5-2.5 7-7-30.166-30.166-7 7-2.5-2.5 8.253-8.253a1.822 1.822 0 012.5 0l32.67 32.67a1.769 1.769 0 010 2.5z" transform="translate(-248.606 -240.033)" fill="#f7f9fd"/><path id="Rectangle_572" data-name="Rectangle 572" transform="rotate(-44.998 133.145 21.736)" fill="#f7f9fd" d="M0 0h3.541v11.308H0z"/><path id="Tracé_154" data-name="Tracé 154" d="M273.222 341.093a1.738 1.738 0 01-1.257-.522 1.769 1.769 0 01-.513-1.248 1.527 1.527 0 01.035-.345 1.606 1.606 0 01.1-.336 1.446 1.446 0 01.168-.3 1.375 1.375 0 01.487-.487 1.487 1.487 0 01.3-.169 1.655 1.655 0 01.336-.1 1.782 1.782 0 011.593.478 1.506 1.506 0 01.221.274 1.939 1.939 0 01.169.3 2.526 2.526 0 01.1.336 1.527 1.527 0 01.035.345 1.8 1.8 0 01-.133.682 1.653 1.653 0 01-.39.567 1.235 1.235 0 01-.265.221 1.445 1.445 0 01-.3.168 2.2 2.2 0 01-.336.1 2.277 2.277 0 01-.35.036z" transform="translate(-251.225 -242.944)" fill="#f7f9fd"/><path id="Rectangle_573" data-name="Rectangle 573" transform="rotate(-8.078 20.915 -246.01)" fill="#f7f9fd" d="M0 0h3.541v15.715H0z"/><path id="Rectangle_574" data-name="Rectangle 574" transform="matrix(.601 -.8 .8 .601 47.038 20.879)" fill="#f7f9fd" d="M0 0h15.715v3.541H0z"/><path id="Rectangle_575" data-name="Rectangle 575" transform="rotate(-53.06 25.153 -9.324)" fill="#f7f9fd" d="M0 0h3.541v15.715H0z"/></svg>