<svg id="Groupe_2044" data-name="Groupe 2044" xmlns="http://www.w3.org/2000/svg" width="104.298" height="109.071"><g id="Groupe_2032" data-name="Groupe 2032" transform="translate(15.434 27.559)"><circle id="Ellipse_40" data-name="Ellipse 40" cx="36.714" cy="36.714" fill="#93bbff" r="36.714"/></g><g id="Groupe_2043" data-name="Groupe 2043"><g id="Groupe_2034" data-name="Groupe 2034" transform="translate(0 44.156)"><path id="Tracé_142" data-name="Tracé 142" d="M642.942 329.572a16.556 16.556 0 01-5.126-.683 1.774 1.774 0 01-1.209-1.566c-.508-7.806 8.053-21.453 11.382-26.437l-3.217-1.251a1.771 1.771 0 01-1.077-2.08 30.374 30.374 0 0114.267-19.39l-3.865-1.9a1.769 1.769 0 01-.988-1.5c-.117-2.2 2.455-8.973 11.364-10.115l.451 3.512c-5.376.69-7.433 3.831-8.052 5.515l5.925 2.908a1.771 1.771 0 01-.211 3.267c-.462.16-11.083 3.97-15.041 17.056l3.809 1.479a1.771 1.771 0 01.8 2.676c-3.288 4.638-11.435 17.573-12 24.764 7.1 1.273 21.674-3.348 26.99-5.36a1.77 1.77 0 012.385 1.452l.471 4.058a26.339 26.339 0 0020.3-10.247 1.771 1.771 0 013.215.621l1.317 6.453a7.845 7.845 0 003.561-1.347c2.617-1.786 4.352-5.143 5.016-9.711l3.505.511c-1.065 7.324-4.353 10.778-6.925 12.387a9.74 9.74 0 01-7.157 1.538 1.772 1.772 0 01-1.2-1.333l-.861-4.219a30.214 30.214 0 01-22.365 8.909 1.77 1.77 0 01-1.74-1.567l-.4-3.428c-4.553 1.586-15.394 5.028-23.324 5.028z" transform="translate(-636.585 -264.657)" fill="#f7f9fd"/></g><g id="Groupe_2035" data-name="Groupe 2035" transform="translate(59.557)"><path id="Tracé_143" data-name="Tracé 143" d="M720.817 224.277h-15.193a1.771 1.771 0 01-1.771-1.771v-5.951a1.771 1.771 0 011.771-1.771h15.194a1.771 1.771 0 011.771 1.771v5.951a1.771 1.771 0 01-1.772 1.771zm-13.423-3.541h11.652v-2.41h-11.652z" transform="translate(-703.853 -214.784)" fill="#f7f9fd"/></g><g id="Groupe_2036" data-name="Groupe 2036" transform="translate(33.556 10.76)"><path id="Tracé_144" data-name="Tracé 144" d="M709.856 301.675a35.368 35.368 0 01-4.744-70.417V228.6h3.541v4.245a1.77 1.77 0 01-1.617 1.764 31.837 31.837 0 105.643 0 1.77 1.77 0 01-1.616-1.764v-5.907h3.541v4.321a35.369 35.369 0 01-4.75 70.417z" transform="translate(-674.485 -226.937)" fill="#f7f9fd"/></g><g id="Groupe_2039" data-name="Groupe 2039" transform="translate(89.408 15.956)"><g id="Groupe_2037" data-name="Groupe 2037" transform="translate(0 2.888)"><path id="Rectangle_566" data-name="Rectangle 566" transform="rotate(-49.7 4.951 2.293)" fill="#f7f9fd" d="M0 0h6.014v3.541H0z"/></g><g id="Groupe_2038" data-name="Groupe 2038" transform="translate(.931)"><path id="Rectangle_567" data-name="Rectangle 567" transform="rotate(-49.71 2.915 1.35)" fill="#f7f9fd" d="M0 0h3.541v8.295H0z"/></g></g><g id="Groupe_2040" data-name="Groupe 2040" transform="translate(68.925 50.122)"><path id="Tracé_145" data-name="Tracé 145" d="M714.434 299.735v-3.541a24.825 24.825 0 0024.8-24.8h3.541a28.37 28.37 0 01-28.341 28.341z" transform="translate(-714.434 -271.396)" fill="#f7f9fd"/></g><g id="Groupe_2041" data-name="Groupe 2041" transform="translate(70.153 30.148)"><path id="Rectangle_568" data-name="Rectangle 568" transform="rotate(-58.048 13.212 7.33)" fill="#f7f9fd" d="M0 0h17.279v3.542H0z"/></g><g id="Groupe_2042" data-name="Groupe 2042" transform="translate(61.991 43.188)"><path id="Tracé_146" data-name="Tracé 146" d="M713.536 277.432a6.934 6.934 0 116.933-6.934 6.942 6.942 0 01-6.933 6.934zm0-10.327a3.393 3.393 0 103.392 3.393 3.4 3.4 0 00-3.392-3.393z" transform="translate(-706.602 -263.564)" fill="#f7f9fd"/></g></g></svg>