<svg id="Groupe_2061" data-name="Groupe 2061" xmlns="http://www.w3.org/2000/svg" width="102.533" height="106.895"><circle id="Ellipse_42" data-name="Ellipse 42" cx="36.714" cy="36.714" transform="translate(14.371 25.713)" fill="#ed8900" r="36.714"/><g id="Groupe_2060" data-name="Groupe 2060"><g id="Groupe_2058" data-name="Groupe 2058" transform="translate(8.686 2.122)"><g id="Groupe_2053" data-name="Groupe 2053"><path id="Tracé_156" data-name="Tracé 156" d="M1078.852 279.362a112.32 112.32 0 01-6.379-44.362 1.77 1.77 0 011.543-1.592c.258-.033 26.057-3.364 41.288-13.835a1.768 1.768 0 012.006 0 62.383 62.383 0 0011.805 6.169l-1.332 3.281a68.1 68.1 0 01-11.476-5.861c-14 9.124-34.709 12.711-40.4 13.557a112.184 112.184 0 006.27 41.433z" transform="translate(-1072.251 -219.265)"/></g><g id="Groupe_2054" data-name="Groupe 2054" transform="translate(24.369 41.018)"><path id="Tracé_157" data-name="Tracé 157" d="M1119.463 329.35a1.766 1.766 0 01-.879-.234 79.959 79.959 0 01-18.809-14.853l2.591-2.415a76.291 76.291 0 0017.1 13.683c26.161-15.418 35.554-41.047 38.82-59.936l3.49.6c-3.432 19.848-13.4 46.874-41.43 62.917a1.773 1.773 0 01-.883.238z" transform="translate(-1099.775 -265.595)"/></g><g id="Groupe_2055" data-name="Groupe 2055" transform="translate(58.565 63.111)"><path id="Tracé_158" data-name="Tracé 158" d="M1141.015 310.62l-2.616-2.387a66.957 66.957 0 0011.5-17.685l3.231 1.452a70.492 70.492 0 01-12.115 18.62z" transform="translate(-1138.399 -290.548)"/></g><g id="Groupe_2056" data-name="Groupe 2056" transform="translate(51.085 83.636)"><path id="Tracé_159" data-name="Tracé 159" d="M1132.143 320.632l-2.193-2.781a62.637 62.637 0 004.722-4.12l2.459 2.548a66.11 66.11 0 01-4.988 4.353z" transform="translate(-1129.95 -313.731)"/></g><g id="Groupe_2057" data-name="Groupe 2057" transform="translate(7.012 14.501)"><path id="Tracé_160" data-name="Tracé 160" d="M1080.379 254.139a77.486 77.486 0 01-.033-11.215 1.771 1.771 0 011.543-1.593 114.062 114.062 0 0022.766-5.688l1.25 3.313a115.757 115.757 0 01-22.119 5.681 84.054 84.054 0 00.127 9.268z" transform="translate(-1080.17 -235.644)"/></g></g><g id="Groupe_2059" data-name="Groupe 2059"><path id="Tracé_161" data-name="Tracé 161" d="M1065.256 315.054l-2.816-2.146 36.492-47.9a1.771 1.771 0 012.482-.336l9.866 7.517 25.765-33.819-7-5.335a1.769 1.769 0 01.409-3.049L1162.539 217a1.77 1.77 0 012.422 1.846l-4 34.389a1.771 1.771 0 01-2.832 1.2l-7-5.336-35.423 46.5a1.77 1.77 0 01-2.481.336l-9.861-7.513-16.055 21.078-2.816-2.146 17.128-22.483a1.771 1.771 0 012.482-.336l9.861 7.512 35.423-46.5a1.77 1.77 0 012.481-.336l5.939 4.524 3.293-28.335-26.439 10.7 5.938 4.525a1.769 1.769 0 01.336 2.481l-27.911 36.636a1.77 1.77 0 01-2.481.336l-9.866-7.517z" transform="translate(-1062.44 -216.869)"/></g></g></svg>