<svg xmlns="http://www.w3.org/2000/svg" viewBox="0 0 511.99 488.88" fill="#ED8900"><g id="Layer_2" data-name="Layer 2"><path d="M511.26 185.46a15 15 0 00-12.11-10.21l-158.72-23.06-71-143.83a15 15 0 00-26.9 0l-71 143.83-158.69 23.06A15 15 0 000 190.06v.57a15 15 0 004.52 10.68L119.3 313.19l-27 157.69a15.67 15.67 0 00-.21 2.55 15 15 0 0022 13.72l142-74.63v-.46l142 74.63a15 15 0 0021.77-15.81L392.6 312.79l114.86-112a15 15 0 003.8-15.33zM366 296.81a15 15 0 00-4.32 13.28L385 446l-122-64.17a14.91 14.91 0 00-6.56-1.7c.88-70.8 2.77-239.92 1.9-326.55l58.71 119a15 15 0 0011.29 8.2l136.45 19.83z" id="Capa_1" data-name="Capa 1"/></g></svg>