<svg xmlns="http://www.w3.org/2000/svg" width="21.531" height="21.531" viewBox="0 0 21.531 21.531">
  <path id="icons8-instagram" d="M11.516,5A6.524,6.524,0,0,0,5,11.516v8.5a6.524,6.524,0,0,0,6.516,6.516h8.5a6.524,6.524,0,0,0,6.516-6.516v-8.5A6.524,6.524,0,0,0,20.015,5Zm9.916,3.966A1.133,1.133,0,1,1,20.3,10.1,1.133,1.133,0,0,1,21.432,8.966ZM15.766,10.1A5.666,5.666,0,1,1,10.1,15.766,5.673,5.673,0,0,1,15.766,10.1Zm0,1.7a3.966,3.966,0,1,0,3.966,3.966A3.966,3.966,0,0,0,15.766,11.8Z" transform="translate(-5 -5)" fill="#1068f8"/>
</svg>
