<svg xmlns="http://www.w3.org/2000/svg" width="24.053" height="24.164" viewBox="0 0 24.053 24.164">
  <path id="icons8-paypal" d="M9.443,4A1.674,1.674,0,0,0,7.812,5.323L4.29,22.041a1.57,1.57,0,0,0,1.535,1.894H8.491L11.642,9.171A2.732,2.732,0,0,1,14.3,7.02h8.5A5.651,5.651,0,0,0,17.762,4ZM14.3,8.833a.91.91,0,0,0-.886.717l-1.458,6.834h4.067a7.193,7.193,0,0,0,6.992-5.641l.413-1.91ZM25.268,8.9l-.483,2.231a8.964,8.964,0,0,1-8.763,7.07H11.569L9.753,26.7a1.209,1.209,0,0,0,1.181,1.461h4.343a.907.907,0,0,0,.887-.72l1.312-6.227h3.679a7.1,7.1,0,0,0,6.938-5.6l.067-.314a5.927,5.927,0,0,0-.255-3.494A5.711,5.711,0,0,0,25.268,8.9Z" transform="translate(-4.256 -4)" fill="#1068f8"/>
</svg>
