<svg xmlns="http://www.w3.org/2000/svg" width="26.58" height="18.123" viewBox="0 0 26.58 18.123">
  <path id="icons8-visa" d="M5.927,9A3.931,3.931,0,0,0,2,12.927V23.2a3.931,3.931,0,0,0,3.927,3.927H24.653A3.931,3.931,0,0,0,28.58,23.2V12.927A3.931,3.931,0,0,0,24.653,9ZM17.8,14.739a4.99,4.99,0,0,1,1.57.31l-.271,1.4a2.584,2.584,0,0,0-1.162-.408c-.834,0-1.126.273-1.126.639,0,.716,2.326.832,2.327,2.44,0,1.337-1.667,2.268-2.868,2.268a3.834,3.834,0,0,1-1.823-.367l.29-1.339a3.483,3.483,0,0,0,1.609.368c.968,0,1.1-.407,1.1-.58,0-1.026-2.326-.754-2.326-2.75C15.125,15.611,16.036,14.739,17.8,14.739Zm-5.064.127h1.7l-1.015,6.319H11.741Zm9.11,0h1.764l1.3,6.319H23.382l-.181-.9H21.1l-.345.9H19.093Zm-11.567,0h1.795L9.52,21.186H7.673L6.327,16.069a5.655,5.655,0,0,1,2.291,2.677c.037.238.125.621.125.621Zm-5.813.013H7.059a1.04,1.04,0,0,1,.918.622l.564,2.867C7.772,15.89,4.465,14.88,4.465,14.88ZM22.48,16.688l-.913,2.388h1.391Z" transform="translate(-2 -9)" fill="#1068f8"/>
</svg>
