<svg xmlns="http://www.w3.org/2000/svg" width="24.931" height="18.132" viewBox="0 0 24.931 18.132">
  <path id="icons8-youtube" d="M14.385,8.5a49.39,49.39,0,0,0-8.852.655l-.012,0a3.843,3.843,0,0,0-3.077,2.965v.007A31.2,31.2,0,0,0,2,17.566a26.31,26.31,0,0,0,.5,5.455,3.877,3.877,0,0,0,3.074,2.953l.021.006a50.574,50.574,0,0,0,8.841.653,50.608,50.608,0,0,0,8.843-.653l.021-.006a3.843,3.843,0,0,0,3.077-2.965l0-.012a36.217,36.217,0,0,0,.55-5.465q0-.009,0-.019a26.232,26.232,0,0,0-.553-5.5A3.876,3.876,0,0,0,23.3,9.051l-.068-.012A68.9,68.9,0,0,0,14.385,8.5Zm-2.1,4.817a1.225,1.225,0,0,1,.631.16l4.875,2.755a1.2,1.2,0,0,1,0,2.1l-4.875,2.755a1.225,1.225,0,0,1-1.832-1.051V14.528A1.218,1.218,0,0,1,12.288,13.317Z" transform="translate(-2 -8.5)" fill="#1068f8"/>
</svg>
