<svg id="icons8-linkedin" xmlns="http://www.w3.org/2000/svg" width="20.398" height="20.398" viewBox="0 0 20.398 20.398">
  <path id="icons8-linkedin-2" data-name="icons8-linkedin" d="M23.282,6H9.116A3.12,3.12,0,0,0,6,9.116V23.282A3.12,3.12,0,0,0,9.116,26.4H23.282A3.12,3.12,0,0,0,26.4,23.282V9.116A3.12,3.12,0,0,0,23.282,6ZM12.8,21.865a.566.566,0,0,1-.567.567h-1.7a.566.566,0,0,1-.567-.567V14.5a.566.566,0,0,1,.567-.567h1.7a.566.566,0,0,1,.567.567ZM11.383,12.8A1.417,1.417,0,1,1,12.8,11.383,1.416,1.416,0,0,1,11.383,12.8Zm11.049,9.066a.566.566,0,0,1-.567.567h-1.7a.566.566,0,0,1-.567-.567v-4.25a1.417,1.417,0,0,0-2.833,0v4.25a.566.566,0,0,1-.567.567H14.5a.566.566,0,0,1-.567-.567V14.5a.566.566,0,0,1,.567-.567h1.7a.566.566,0,0,1,.567.567v.307a3.394,3.394,0,0,1,5.666,2.527Z" transform="translate(-6 -6)" fill="#1068f8"/>
</svg>
