<svg xmlns="http://www.w3.org/2000/svg" width="20.398" height="20.398" viewBox="0 0 20.398 20.398">
  <path id="icons8-facebook" d="M26.4,9.116V23.282A3.122,3.122,0,0,1,23.282,26.4H20.165V18.466h2.051a.57.57,0,0,0,.567-.5l.21-1.7a.549.549,0,0,0-.136-.442.556.556,0,0,0-.425-.193H20.165V13.649A1.137,1.137,0,0,1,21.3,12.516h1.133A.568.568,0,0,0,23,11.949V10.034a.57.57,0,0,0-.516-.561c-.034-.006-.833-.074-1.847-.074-2.493,0-3.87,1.485-3.87,4.176v2.057H14.5a.568.568,0,0,0-.567.567v1.7a.568.568,0,0,0,.567.567h2.266V26.4H9.116A3.122,3.122,0,0,1,6,23.282V9.116A3.122,3.122,0,0,1,9.116,6H23.282A3.122,3.122,0,0,1,26.4,9.116Z" transform="translate(-6 -6)" fill="#1068f8"/>
</svg>
