<svg id="Groupe_2061" data-name="Groupe 2061" xmlns="http://www.w3.org/2000/svg" width="102.533" height="106.895" viewBox="0 0 102.533 106.895">
  <ellipse id="Ellipse_42" data-name="Ellipse 42" cx="36.714" cy="36.714" rx="36.714" ry="36.714" transform="translate(14.371 25.713)" fill="#ed8900"/>
  <g id="Groupe_2060" data-name="Groupe 2060" transform="translate(0 0)">
    <g id="Groupe_2058" data-name="Groupe 2058" transform="translate(8.686 2.122)">
      <g id="Groupe_2053" data-name="Groupe 2053">
        <path id="Tracé_156" data-name="Tracé 156" d="M1078.852,279.362A112.32,112.32,0,0,1,1072.473,235a1.77,1.77,0,0,1,1.543-1.592c.258-.033,26.057-3.364,41.288-13.835a1.768,1.768,0,0,1,2.006,0,62.383,62.383,0,0,0,11.805,6.169l-1.332,3.281a68.1,68.1,0,0,1-11.476-5.861c-14,9.124-34.709,12.711-40.4,13.557a112.184,112.184,0,0,0,6.27,41.433Z" transform="translate(-1072.251 -219.265)"/>
      </g>
      <g id="Groupe_2054" data-name="Groupe 2054" transform="translate(24.369 41.018)">
        <path id="Tracé_157" data-name="Tracé 157" d="M1119.463,329.35a1.766,1.766,0,0,1-.879-.234,79.959,79.959,0,0,1-18.809-14.853l2.591-2.415a76.291,76.291,0,0,0,17.1,13.683c26.161-15.418,35.554-41.047,38.82-59.936l3.49.6c-3.432,19.848-13.4,46.874-41.43,62.917A1.773,1.773,0,0,1,1119.463,329.35Z" transform="translate(-1099.775 -265.595)"/>
      </g>
      <g id="Groupe_2055" data-name="Groupe 2055" transform="translate(58.565 63.111)">
        <path id="Tracé_158" data-name="Tracé 158" d="M1141.015,310.62l-2.616-2.387a66.957,66.957,0,0,0,11.5-17.685L1153.13,292A70.492,70.492,0,0,1,1141.015,310.62Z" transform="translate(-1138.399 -290.548)"/>
      </g>
      <g id="Groupe_2056" data-name="Groupe 2056" transform="translate(51.085 83.636)">
        <path id="Tracé_159" data-name="Tracé 159" d="M1132.143,320.632l-2.193-2.781a62.637,62.637,0,0,0,4.722-4.12l2.459,2.548A66.11,66.11,0,0,1,1132.143,320.632Z" transform="translate(-1129.95 -313.731)"/>
      </g>
      <g id="Groupe_2057" data-name="Groupe 2057" transform="translate(7.012 14.501)">
        <path id="Tracé_160" data-name="Tracé 160" d="M1080.379,254.139a77.486,77.486,0,0,1-.033-11.215,1.771,1.771,0,0,1,1.543-1.593,114.062,114.062,0,0,0,22.766-5.688l1.25,3.313a115.757,115.757,0,0,1-22.119,5.681,84.054,84.054,0,0,0,.127,9.268Z" transform="translate(-1080.17 -235.644)"/>
      </g>
    </g>
    <g id="Groupe_2059" data-name="Groupe 2059">
      <path id="Tracé_161" data-name="Tracé 161" d="M1065.256,315.054l-2.816-2.146,36.492-47.9a1.771,1.771,0,0,1,2.482-.336l9.866,7.517,25.765-33.819-7-5.335a1.769,1.769,0,0,1,.409-3.049L1162.539,217a1.77,1.77,0,0,1,2.422,1.846l-4,34.389a1.771,1.771,0,0,1-2.832,1.2l-7-5.336-35.423,46.5a1.77,1.77,0,0,1-2.481.336l-9.861-7.513L1087.309,309.5l-2.816-2.146,17.128-22.483a1.771,1.771,0,0,1,2.482-.336l9.861,7.512,35.423-46.5a1.77,1.77,0,0,1,2.481-.336l5.939,4.524L1161.1,221.4l-26.439,10.7,5.938,4.525a1.769,1.769,0,0,1,.336,2.481l-27.911,36.636a1.77,1.77,0,0,1-2.481.336l-9.866-7.517Z" transform="translate(-1062.44 -216.869)"/>
    </g>
  </g>
</svg>
