<svg xmlns="http://www.w3.org/2000/svg" width="100.294" height="100.425" viewBox="0 0 100.294 100.425">
  <g id="Groupe_2120" data-name="Groupe 2120" transform="translate(-797.499 -829.118)">
    <path id="Tracé_162" data-name="Tracé 162" d="M36.714,0A36.714,36.714,0,1,1,0,36.714,36.714,36.714,0,0,1,36.714,0Z" transform="translate(809.666 841.727)" fill="#ffda93"/>
    <g id="Groupe_2101" data-name="Groupe 2101" transform="translate(788.049 815.668)">
      <path id="Tracé_173" data-name="Tracé 173" d="M62.369,65.829a1.816,1.816,0,0,0-2.335.983A7.133,7.133,0,0,1,53.4,70.99c-3.809,0-7-2.826-7-6.144V63H58.068a1.843,1.843,0,0,0,0-3.686H46.4V56.859H58.068a1.843,1.843,0,1,0,0-3.686H46.4V51.33c0-3.44,3.195-6.144,7-6.144a7.133,7.133,0,0,1,6.635,4.178,1.758,1.758,0,0,0,2.335.983,1.67,1.67,0,0,0,.983-2.335A10.579,10.579,0,0,0,53.276,41.5c-5.9,0-10.69,4.423-10.69,9.83v1.843H40.743a1.843,1.843,0,0,0,0,3.686h1.966v2.457H40.866a1.843,1.843,0,1,0,0,3.686h1.843v1.843c0,5.406,4.792,9.83,10.69,9.83a10.825,10.825,0,0,0,10.076-6.512A1.82,1.82,0,0,0,62.369,65.829Z" transform="translate(5.821 5.272)"/>
      <path id="Tracé_174" data-name="Tracé 174" d="M113.188,67.255l-6.727-7.139,3.569-9.2a2.083,2.083,0,0,0-1.1-2.608l-8.924-3.981-.275-9.747a2.214,2.214,0,0,0-2.059-2.059l-9.747-.275-3.981-8.924a2.083,2.083,0,0,0-2.608-1.1l-9.2,3.569L65,19.068a1.991,1.991,0,0,0-2.883,0l-7.139,6.727-9.2-3.569a2.083,2.083,0,0,0-2.608,1.1l-3.981,8.924-9.747.275a2.214,2.214,0,0,0-2.059,2.059l-.275,9.747L18.186,48.31a2.083,2.083,0,0,0-1.1,2.608l3.569,9.2-6.59,7.139a1.991,1.991,0,0,0,0,2.883l6.727,7.139-3.569,9.2a2.083,2.083,0,0,0,1.1,2.608l8.924,3.981.275,9.747a2.214,2.214,0,0,0,2.059,2.059l9.747.275,3.981,8.924a2.083,2.083,0,0,0,2.608,1.1l9.2-3.569,7.139,6.727a1.991,1.991,0,0,0,2.746,0L72.14,111.6l9.2,3.569a1.981,1.981,0,0,0,2.471-.824L113.463,70A2.439,2.439,0,0,0,113.188,67.255ZM85.045,104.872l-1.51-4.805,5.354-4.942a2.018,2.018,0,0,0,.686-1.922l-1.51-9.061,8.924-2.059a2.159,2.159,0,0,0,1.51-1.373l2.471-6.864,5.08-.412ZM81.2,110.5l-8.786-3.432a2.151,2.151,0,0,0-2.2.412l-6.59,6.315-6.59-6.315a1.967,1.967,0,0,0-1.373-.549,1.029,1.029,0,0,0-.686.137l-8.512,3.295-3.707-8.374a2.115,2.115,0,0,0-1.785-1.236l-9.2-.275-.275-9.2A1.955,1.955,0,0,0,30.268,89.5l-8.374-3.707,3.295-8.512a2.151,2.151,0,0,0-.412-2.2l-6.315-6.452,6.315-6.59a2.094,2.094,0,0,0,.412-2.2L21.893,51.33l8.374-3.707A2.115,2.115,0,0,0,31.5,45.839l.275-9.2,9.2-.275a1.955,1.955,0,0,0,1.785-1.236l3.707-8.374,8.512,3.295a2.151,2.151,0,0,0,2.2-.412l6.59-6.315,6.59,6.315a2.094,2.094,0,0,0,2.2.412l8.512-3.295L84.77,35.13a2.115,2.115,0,0,0,1.785,1.236l9.2.275.275,9.2a1.955,1.955,0,0,0,1.236,1.785l8.374,3.707-3.569,8.512a2.151,2.151,0,0,0,.412,2.2l6.452,6.864-.137.275L99.185,70A2.088,2.088,0,0,0,97.4,71.374l-2.608,7.139-9.747,2.2a1.91,1.91,0,0,0-1.51,2.334l1.647,9.885-5.491,5.08a2.135,2.135,0,0,0-.549,2.2l3.02,9.2Z" transform="translate(-4 -5)"/>
    </g>
  </g>
</svg>
