<svg id="Groupe_2051" data-name="Groupe 2051" xmlns="http://www.w3.org/2000/svg" width="73.999" height="116.053" viewBox="0 0 73.999 116.053">
  <path id="Tracé_162" data-name="Tracé 162" d="M36.714,0A36.714,36.714,0,1,1,0,36.714,36.714,36.714,0,0,1,36.714,0Z" transform="translate(0.272 29.827)" fill="#0249bc"/>
  <path id="Tracé_148" data-name="Tracé 148" d="M264.656,312.682l-2.5-2.5L265,307.333l.6-10.564a1.752,1.752,0,0,1,.162-.645l11.175-24.046c.21-.405,1.81-3.316,4.592-3.488,1.791-.1,3.43.9,4.886,3,2.621,3.78,1.649,10.06.516,14.33l26.031-26.03a6.717,6.717,0,0,1,4.656-1.989,6.511,6.511,0,0,1,4.669,1.874,6.387,6.387,0,0,1,1.873,4.668,6.715,6.715,0,0,1-1.988,4.656l-2.5-2.5a3.193,3.193,0,0,0,.952-2.211,2.88,2.88,0,0,0-.838-2.105,2.957,2.957,0,0,0-2.1-.837,3.192,3.192,0,0,0-2.211.951l-28.172,28.171a1.761,1.761,0,0,1-.946.492l-2.189.383a1.771,1.771,0,0,1-1.953-2.393c1.208-3.073,3.8-11.838,1.3-15.439-.779-1.124-1.418-1.516-1.756-1.482-.58.036-1.363.994-1.638,1.521l-11,23.663-.618,10.9a1.773,1.773,0,0,1-.515,1.152Z" transform="translate(-250.159 -233.813)" fill="#f7f9fd"/>
  <rect id="Rectangle_569" data-name="Rectangle 569" width="33.711" height="3.541" transform="translate(45.669 56.617) rotate(-44.999)" fill="#f7f9fd"/>
  <g id="Groupe_2045" data-name="Groupe 2045" transform="translate(45.944 46.872)">
    <path id="Tracé_149" data-name="Tracé 149" d="M303,295.609l-2.5-2.5,7.484-7.484a6.515,6.515,0,1,1,9.21,9.21l-2.5-2.5a2.975,2.975,0,1,0-4.2-4.2Z" transform="translate(-300.499 -283.635)" fill="#f7f9fd"/>
  </g>
  <g id="Groupe_2046" data-name="Groupe 2046" transform="translate(51.783 55.564)">
    <rect id="Rectangle_570" data-name="Rectangle 570" width="11.81" height="3.541" transform="translate(0 8.351) rotate(-45)" fill="#f7f9fd"/>
  </g>
  <g id="Groupe_2047" data-name="Groupe 2047" transform="translate(57.115 56.598)">
    <path id="Tracé_150" data-name="Tracé 150" d="M322.326,305.816l-2.5-2.5a2.975,2.975,0,1,0-4.2-4.2l-2.5-2.5a6.514,6.514,0,1,1,9.21,9.21Z" transform="translate(-313.116 -294.62)" fill="#f7f9fd"/>
  </g>
  <g id="Groupe_2048" data-name="Groupe 2048" transform="translate(56.987 65.29)">
    <rect id="Rectangle_571" data-name="Rectangle 571" width="9.665" height="3.541" transform="translate(0 6.834) rotate(-45)" fill="#f7f9fd"/>
  </g>
  <g id="Groupe_2049" data-name="Groupe 2049" transform="translate(60.93 66.193)">
    <path id="Tracé_151" data-name="Tracé 151" d="M326.637,316.654l-2.5-2.5a3.2,3.2,0,0,0,.951-2.212,2.876,2.876,0,0,0-.837-2.1,3.059,3.059,0,0,0-4.316.114l-2.5-2.5a6.6,6.6,0,0,1,9.325-.113A6.381,6.381,0,0,1,328.624,312,6.718,6.718,0,0,1,326.637,316.654Z" transform="translate(-317.426 -305.458)" fill="#f7f9fd"/>
  </g>
  <g id="Groupe_2050" data-name="Groupe 2050" transform="translate(35.832 74.886)">
    <path id="Tracé_152" data-name="Tracé 152" d="M291.583,344l-2.5-2.5,3.082-3.082a1.777,1.777,0,0,1,.717-.436l7.776-2.468,20.23-20.229,2.5,2.5-20.534,20.534a1.755,1.755,0,0,1-.716.436l-7.776,2.468Z" transform="translate(-289.078 -315.276)" fill="#f7f9fd"/>
  </g>
  <path id="Tracé_153" data-name="Tracé 153" d="M283.78,356.086l-2.5-2.5,7-7-30.166-30.166-7,7-2.5-2.5,8.253-8.253a1.822,1.822,0,0,1,2.5,0l32.67,32.67a1.769,1.769,0,0,1,0,2.5Z" transform="translate(-248.606 -240.033)" fill="#f7f9fd"/>
  <rect id="Rectangle_572" data-name="Rectangle 572" width="3.541" height="11.308" transform="translate(23.625 100.51) rotate(-44.998)" fill="#f7f9fd"/>
  <path id="Tracé_154" data-name="Tracé 154" d="M273.222,341.093a1.738,1.738,0,0,1-1.257-.522,1.769,1.769,0,0,1-.513-1.248,1.527,1.527,0,0,1,.035-.345,1.606,1.606,0,0,1,.1-.336,1.446,1.446,0,0,1,.168-.3,1.375,1.375,0,0,1,.487-.487,1.487,1.487,0,0,1,.3-.169,1.655,1.655,0,0,1,.336-.1,1.782,1.782,0,0,1,1.593.478,1.506,1.506,0,0,1,.221.274,1.939,1.939,0,0,1,.169.3,2.526,2.526,0,0,1,.1.336,1.527,1.527,0,0,1,.035.345,1.8,1.8,0,0,1-.133.682,1.653,1.653,0,0,1-.39.567,1.235,1.235,0,0,1-.265.221,1.445,1.445,0,0,1-.3.168,2.2,2.2,0,0,1-.336.1A2.277,2.277,0,0,1,273.222,341.093Z" transform="translate(-251.225 -242.944)" fill="#f7f9fd"/>
  <rect id="Rectangle_573" data-name="Rectangle 573" width="3.541" height="15.715" transform="translate(34.777 0.498) rotate(-8.078)" fill="#f7f9fd"/>
  <rect id="Rectangle_574" data-name="Rectangle 574" width="15.715" height="3.541" transform="matrix(0.601, -0.8, 0.8, 0.601, 47.038, 20.879)" fill="#f7f9fd"/>
  <rect id="Rectangle_575" data-name="Rectangle 575" width="3.541" height="15.715" transform="matrix(0.601, -0.799, 0.799, 0.601, 17.486, 16.377)" fill="#f7f9fd"/>
</svg>
