<svg xmlns="http://www.w3.org/2000/svg" xmlns:xlink="http://www.w3.org/1999/xlink" width="1764.295" height="2118.018" viewBox="0 0 1764.295 2118.018">
  <defs>
    <linearGradient id="linear-gradient" x1="0.5" y1="1.008" x2="0.509" y2="0.551" gradientUnits="objectBoundingBox">
      <stop offset="0" stop-color="#fff"/>
      <stop offset="1" stop-color="#e7eef7"/>
    </linearGradient>
  </defs>
  <path id="Union_22" data-name="Union 22" d="M17674.008,1474.936c-.467-1.472,22.9-1.157,64.287.528V1110.039h33V631.1c-61.76,2.883-97.865,3.805-97.285,1.976L17793.455-5c184.223,49.5,132.281,204.916,736.873,198.013,146.912-1.678,360.678-89.957,467.113-73.771,334.236,50.818,393.568,259.734,393.568,259.734l-99.715,130.613v600.449h147v519h-123.631l76.346,100s-59.332,208.916-393.568,259.734c-106.436,16.182-320.2-72.093-467.113-73.776-604.592-6.9-552.65,148.512-736.873,198.018Z" transform="translate(-17674 5)" fill="url(#linear-gradient)"/>
</svg>
