<svg xmlns="http://www.w3.org/2000/svg" width="172.035" height="52.378" viewBox="0 0 172.035 52.378">
  <g id="Groupe_2107" data-name="Groupe 2107" transform="translate(-363.17 -122.385) rotate(-8)">
    <path id="Tracé_179" data-name="Tracé 179" d="M508.96,224.024c-1.11,0-2.213.359-3.249-.055-8.6-3.453-17.165-7.357-25.791-10.494a178.823,178.823,0,0,0-21.214-6.239c-7.691-1.769-15.416-2.976-23.136-4.073-7.554-1.076-15.118-1.823-22.681-2.5-11.644-1.038-23.289-2.056-34.938-2.761-6.376-.384-12.761-.034-19.143-.144-5.869-.1-11.738-.355-17.6-.6-.632-.03-1.259-.49-1.886-1.684a3.181,3.181,0,0,1,1.022-.355c14.467.312,28.936.393,43.4,1.076,9.346.443,18.679,1.8,28.02,2.71,5.183.5,10.37.768,15.548,1.389,6.877.827,13.75,1.777,20.615,2.9,6.018.992,12.034,2.123,18.036,3.512,11.492,2.663,22.982,5.411,34.455,8.463,2.407.642,4.74,2.63,7.081,4.191C508.478,220.022,508.515,220.478,508.96,224.024Zm-1.659-1.49.1-1.254c-5.613-4.445-11.544-5.272-17.477-6.07Z" transform="translate(0 0)" fill="#ffaf17"/>
  </g>
</svg>
