<svg xmlns="http://www.w3.org/2000/svg" viewBox="0 0 511.99 488.88" fill="#ED8900"><g id="Layer_2" data-name="Layer 2"><g id="Capa_1" data-name="Capa 1"><path d="M511.26,185.46a15,15,0,0,0-12.11-10.21L340.43,152.19l-71-143.83a15,15,0,0,0-26.9,0l-71,143.83L12.84,175.25A15,15,0,0,0,0,190.06v.57a15,15,0,0,0,4.52,10.68L119.3,313.19l-27,157.69a15.67,15.67,0,0,0-.21,2.55,15,15,0,0,0,22,13.72l142-74.63v-.46l142,74.63a15,15,0,0,0,21.77-15.81L392.6,312.79l114.86-112A15,15,0,0,0,511.26,185.46ZM366,296.81a15,15,0,0,0-4.32,13.28L385,446,263,381.83a14.91,14.91,0,0,0-6.56-1.7c.88-70.8,2.77-239.92,1.9-326.55l58.71,119a15,15,0,0,0,11.29,8.2l136.45,19.83Z"/></g></g></svg>